<?xml version="1.0" encoding="utf-8"?>

<!DOCTYPE svg PUBLIC "-//W3C//DTD SVG 1.1//EN" "http://www.w3.org/Graphics/SVG/1.1/DTD/svg11.dtd">
<svg version="1.1" id="Layer_1" xmlns="http://www.w3.org/2000/svg" xmlns:xlink="http://www.w3.org/1999/xlink" x="0px" y="0px"
	 width="502px" height="327px" viewBox="0 0 502 327" enable-background="new 0 0 502 327" xml:space="preserve">

<defs>
	<style type="text/css">
	text {
	  font-family: Helvetica, Verdana, ArialUnicodeMS, san-serif
	}
	</style>
</defs>

<g>
   <desc>
	PS 3.3 Part 3: Information Object Definitions
   </desc>
</g>

<g>
	<rect x="1" y="1" fill="#F5EED6" width="500" height="325"/>
	<g>
		<g>
			<polygon fill="#FFFFFF" stroke="#000000" stroke-linecap="round" stroke-linejoin="round" stroke-dasharray="2" points="
				341.922,81.388 321.369,73.063 301.951,78.977 340.7,96.498 			"/>
			<polygon fill="#BCBEC0" stroke="#000000" stroke-linecap="round" stroke-linejoin="round" stroke-dasharray="2" points="
				305.775,188.287 446.257,126.298 439.535,162.724 304.361,229.086 			"/>
			<polygon fill="#E6E7E8" stroke="#000000" stroke-linecap="round" stroke-linejoin="round" stroke-dasharray="2" points="
				304.361,229.086 288.994,217.971 289.628,177.834 305.775,188.287 			"/>
			<polygon fill="#FFFFFF" stroke="#000000" stroke-linecap="round" stroke-linejoin="round" points="250.624,76.346 
				399.387,32.506 367.914,22.47 221.495,61.788 			"/>
			<polygon fill="#E6E7E8" stroke="#000000" stroke-linecap="round" stroke-linejoin="round" points="251,102.106 222.583,86.465 
				221.495,61.788 250.624,76.346 			"/>
			<polygon fill="#E6E7E8" stroke="#000000" stroke-linecap="round" stroke-linejoin="round" stroke-dasharray="2" points="
				409.371,127.55 301.951,78.977 301.083,111.331 367.277,145.229 			"/>
			<polyline fill="#FFFFFF" stroke="#000000" stroke-linecap="round" stroke-linejoin="round" stroke-dasharray="2" points="
				363.3,162.904 446.257,126.298 390.077,102.351 370.16,109.37 409.371,127.55 289.628,177.834 305.775,188.287 363.3,162.904 			
				"/>
			<polyline fill="none" stroke="#000000" stroke-linecap="round" stroke-linejoin="round" stroke-dasharray="1,2" points="
				365.919,146.1 360.396,195.81 334.518,180.152 336.407,158.492 			"/>
			<polygon fill="#E6E7E8" stroke="#000000" stroke-linecap="round" stroke-linejoin="round" points="336.407,158.492 
				343.253,72.129 375.551,61.635 365.919,146.1 			"/>
			
				<line fill="#FFFFFF" stroke="#000000" stroke-linecap="round" stroke-linejoin="round" stroke-dasharray="2" x1="337.575" y1="129.93" x2="366.214" y2="144.679"/>
			
				<line fill="#FFFFFF" stroke="#000000" stroke-linecap="round" stroke-linejoin="round" stroke-dasharray="2" x1="340.7" y1="96.498" x2="369.339" y2="109.448"/>
			<polygon fill="#BCBEC0" stroke="#000000" stroke-linecap="round" stroke-linejoin="round" points="370.16,109.37 375.551,61.635 
				251,102.106 250.624,76.346 399.387,32.506 390.077,102.351 			"/>
			
				<line fill="#BCBEC0" stroke="#000000" stroke-linecap="round" stroke-linejoin="round" x1="365.919" y1="146.1" x2="370.16" y2="109.37"/>
			<polyline fill="none" stroke="#000000" stroke-linecap="round" stroke-linejoin="round" stroke-dasharray="1,2" points="
				390.077,102.351 378.847,186.618 360.396,195.81 			"/>
		</g>
		<g>
			<text transform="matrix(1 0 0 1 157.3115 132.2549)"><tspan x="0" y="0" font-size="14">Φ</tspan><tspan x="11.313" y="4" font-size="9">g</tspan><tspan x="16.319" y="0" font-size="10"> = 90º</tspan></text>
			<g>
				<g>
					<line fill="none" stroke="#ED1C24" stroke-width="2" x1="237.464" y1="161.537" x2="337.096" y2="221.762"/>
					<g>
						<polygon fill="#ED1C24" points="333.258,223.516 346.194,227.262 336.865,217.549 						"/>
					</g>
				</g>
			</g>
			<g>
				<path fill="none" stroke="#0DB14B" d="M329.19,127.721"/>
			</g>
			<g>
				<g>
					<line fill="none" stroke="#00AEEF" stroke-width="2" x1="237.463" y1="161.963" x2="237.464" y2="34.427"/>
					<g>
						<polygon fill="#00AEEF" points="240.95,36.805 237.464,23.796 233.978,36.805 						"/>
					</g>
				</g>
			</g>
			<g>
				<g>
					
						<line fill="none" stroke="#00AEEF" stroke-width="2" stroke-dasharray="2,2" x1="236.837" y1="166.778" x2="345.188" y2="232.954"/>
					<g>
						<polygon fill="#00AEEF" points="341.342,234.689 354.261,238.495 344.976,228.739 						"/>
					</g>
				</g>
			</g>
			<g>
				<g>
					
						<line fill="none" stroke="#ED1C24" stroke-width="2" stroke-dasharray="2,2" x1="237.384" y1="162.929" x2="237.384" y2="261.666"/>
					<g>
						<polygon fill="#ED1C24" points="233.897,259.288 237.384,272.297 240.87,259.288 						"/>
					</g>
				</g>
			</g>
			<text transform="matrix(1 0 0 1 349.6367 228.6416)"><tspan x="0" y="0" fill="#ED1C24" font-size="12">X</tspan><tspan x="8.752" y="5" fill="#ED1C24" font-size="9">f</tspan></text>
			<text transform="matrix(1 0 0 1 305.3584 136.625)"><tspan x="0" y="0" fill="#0DB14B" font-size="12">Y</tspan><tspan x="8.752" y="5" fill="#0DB14B" font-size="9">f</tspan></text>
			<text transform="matrix(1 0 0 1 245.1704 27.084)"><tspan x="0" y="0" fill="#00AEEF" font-size="12">Z</tspan><tspan x="8.416" y="5" fill="#00AEEF" font-size="9">f</tspan></text>
			<text transform="matrix(1 0 0 1 293.7061 153.186)"><tspan x="0" y="0" font-size="12">Y</tspan><tspan x="8.004" y="4" font-size="9">f </tspan><tspan x="13.005" y="0" font-size="12">= </tspan><tspan x="23.347" y="0" font-size="12">Y</tspan><tspan x="31.351" y="4" font-size="9">g</tspan></text>
			<text transform="matrix(1 0 0 1 339.7812 249.3984)"><tspan x="0" y="0" font-size="12">X</tspan><tspan x="8.004" y="4" font-size="9">f </tspan><tspan x="13.006" y="0" font-size="12">= </tspan><tspan x="23.348" y="0" font-size="12">Z</tspan><tspan x="30.678" y="4" font-size="9">g</tspan></text>
			<text transform="matrix(1 0 0 1 220.5586 280.6992)"><tspan x="0" y="0" font-size="12">Z</tspan><tspan x="7.33" y="4" font-size="9">f </tspan><tspan x="12.331" y="0" font-size="12">= -X</tspan><tspan x="34.673" y="4" font-size="9">g</tspan></text>
			<g>
				<g>
					<line fill="none" stroke="#0DB14B" stroke-width="2" x1="237.88" y1="161.795" x2="294.979" y2="137.925"/>
					<g>
						<polygon fill="#0DB14B" points="294.13,142.059 304.787,133.824 291.44,135.625 						"/>
					</g>
				</g>
			</g>
			<g>
				<g>
					<line fill="none" stroke="#005695" stroke-width="2" x1="204.961" y1="130.142" x2="256.178" y2="130.142"/>
					<g>
						<polygon fill="#005695" points="254.593,132.466 263.266,130.142 254.593,127.817 						"/>
					</g>
				</g>
			</g>
			<g>
				<g>
					<path fill="none" stroke="#000000" stroke-linecap="round" stroke-linejoin="round" d="M280.017,179.989
						c-0.056-9.487-1.932-20.245-5.785-31.166c-8.31-23.543-23.289-40.725-36.77-43.906"/>
					<g>
						<polygon points="282.343,178.489 279.698,187.069 277.697,178.316 						"/>
					</g>
				</g>
			</g>
		</g>
		<g>
			<polygon fill="#FFFFFF" stroke="#000000" stroke-linecap="round" stroke-linejoin="round" points="167.916,239.712 
				124.801,259.571 132.095,300.243 188.206,271.753 193.034,269.331 201.648,264.153 209.352,258.81 215.935,253.47 
				221.233,248.302 225.14,243.44 227.585,239.032 228.554,235.167 228.047,231.942 226.118,229.419 222.837,227.651 
				218.303,226.673 212.638,226.511 205.982,227.147 198.499,228.599 190.364,230.831 181.774,233.778 172.947,237.401 			"/>
			<polygon fill="#FFFFFF" stroke="#000000" stroke-linecap="round" stroke-linejoin="round" points="242.867,180.144 
				209.834,157.681 54.507,217.81 81.4,249.597 			"/>
			<polyline fill="#E6E7E8" stroke="#000000" stroke-linecap="round" stroke-linejoin="round" points="82.662,254.989 
				55.856,223.011 54.507,217.81 81.4,249.597 			"/>
			<polygon fill="#E6E7E8" stroke="#000000" stroke-linecap="round" stroke-linejoin="round" points="82.601,254.909 
				87.969,277.825 114.4,310.554 101.199,246.901 82.662,254.989 			"/>
			<polygon fill="#BCBEC0" stroke="#000000" stroke-linecap="round" stroke-linejoin="round" points="242.936,184.667 
				242.867,180.144 81.4,249.597 82.662,254.989 101.199,246.901 114.4,310.554 132.095,300.243 120.865,237.63 			"/>
		</g>
	</g>
</g>
</svg>
